<?xml version="1.0" encoding="UTF-8" standalone="no"?>
<!DOCTYPE svg PUBLIC "-//W3C//DTD SVG 1.1//EN"
 "http://www.w3.org/Graphics/SVG/1.1/DTD/svg11.dtd">
<!-- Generated by graphviz version 2.38.0 (20140413.2041)
 -->
<!-- Title: controllers_diagram Pages: 1 -->
<svg width="326pt" height="228pt"
 viewBox="0.00 0.00 326.00 228.00" xmlns="http://www.w3.org/2000/svg" xmlns:xlink="http://www.w3.org/1999/xlink">
<g id="graph0" class="graph" transform="scale(1 1) rotate(0) translate(116 182)">
<title>controllers_diagram</title>
<polygon fill="none" stroke="none" points="-116,46 -116,-182 210,-182 210,46 -116,46"/>
<!-- _diagram_info -->
<g id="node1" class="node"><title>_diagram_info</title>
<text text-anchor="start" x="-104" y="-21.6" font-family="Times,serif" font-size="13.00">Controllers diagram</text>
<text text-anchor="start" x="-104" y="-7.6" font-family="Times,serif" font-size="13.00">Date: Sep 26 2017 &#45; 11:59</text>
<text text-anchor="start" x="-104" y="6.4" font-family="Times,serif" font-size="13.00">Migration version: 20170918164832</text>
<text text-anchor="start" x="-104" y="20.4" font-family="Times,serif" font-size="13.00">Generated by RailRoady 1.5.3</text>
<text text-anchor="start" x="-104" y="34.4" font-family="Times,serif" font-size="13.00">http://railroady.prestonlee.com</text>
</g>
<!-- ApplicationController -->
<g id="node2" class="node"><title>ApplicationController</title>
<path fill="none" stroke="black" d="M82,-71C82,-71 194,-71 194,-71 200,-71 206,-77 206,-83 206,-83 206,-153 206,-153 206,-159 200,-165 194,-165 194,-165 82,-165 82,-165 76,-165 70,-159 70,-153 70,-153 70,-83 70,-83 70,-77 76,-71 82,-71"/>
<text text-anchor="middle" x="138" y="-149.8" font-family="Times,serif" font-size="14.00">ApplicationController</text>
<polyline fill="none" stroke="black" points="70,-142 206,-142 "/>
<polyline fill="none" stroke="black" points="70,-118 206,-118 "/>
<polyline fill="none" stroke="black" points="70,-94 206,-94 "/>
<text text-anchor="start" x="78" y="-78.8" font-family="Times,serif" font-size="14.00">_layout</text>
</g>
<!-- WelcomeController -->
<g id="node3" class="node"><title>WelcomeController</title>
<path fill="none" stroke="black" d="M-72.5,-84.5C-72.5,-84.5 28.5,-84.5 28.5,-84.5 34.5,-84.5 40.5,-90.5 40.5,-96.5 40.5,-96.5 40.5,-165.5 40.5,-165.5 40.5,-171.5 34.5,-177.5 28.5,-177.5 28.5,-177.5 -72.5,-177.5 -72.5,-177.5 -78.5,-177.5 -84.5,-171.5 -84.5,-165.5 -84.5,-165.5 -84.5,-96.5 -84.5,-96.5 -84.5,-90.5 -78.5,-84.5 -72.5,-84.5"/>
<text text-anchor="middle" x="-22" y="-162.3" font-family="Times,serif" font-size="14.00">WelcomeController</text>
<polyline fill="none" stroke="black" points="-84.5,-154.5 40.5,-154.5 "/>
<text text-anchor="start" x="-76.5" y="-139.3" font-family="Times,serif" font-size="14.00">index</text>
<polyline fill="none" stroke="black" points="-84.5,-131.5 40.5,-131.5 "/>
<polyline fill="none" stroke="black" points="-84.5,-107.5 40.5,-107.5 "/>
<text text-anchor="start" x="-76.5" y="-92.3" font-family="Times,serif" font-size="14.00">_layout</text>
</g>
</g>
</svg>
