<?xml version="1.0" encoding="UTF-8" standalone="no"?>
<!DOCTYPE svg PUBLIC "-//W3C//DTD SVG 1.1//EN"
 "http://www.w3.org/Graphics/SVG/1.1/DTD/svg11.dtd">
<!-- Generated by graphviz version 2.38.0 (20140413.2041)
 -->
<!-- Title: models_diagram Pages: 1 -->
<svg width="726pt" height="340pt"
 viewBox="0.00 0.00 726.34 340.00" xmlns="http://www.w3.org/2000/svg" xmlns:xlink="http://www.w3.org/1999/xlink">
<g id="graph0" class="graph" transform="scale(1 1) rotate(0) translate(4 336)">
<title>models_diagram</title>
<polygon fill="none" stroke="none" points="-4,4 -4,-336 722.343,-336 722.343,4 -4,4"/>
<!-- _diagram_info -->
<g id="node1" class="node"><title>_diagram_info</title>
<text text-anchor="start" x="8" y="-190.6" font-family="Times,serif" font-size="13.00">Models diagram</text>
<text text-anchor="start" x="8" y="-176.6" font-family="Times,serif" font-size="13.00">Date: Sep 26 2017 &#45; 11:59</text>
<text text-anchor="start" x="8" y="-162.6" font-family="Times,serif" font-size="13.00">Migration version: 20170918164832</text>
<text text-anchor="start" x="8" y="-148.6" font-family="Times,serif" font-size="13.00">Generated by RailRoady 1.5.3</text>
<text text-anchor="start" x="8" y="-134.6" font-family="Times,serif" font-size="13.00">http://railroady.prestonlee.com</text>
</g>
<!-- User -->
<g id="node2" class="node"><title>User</title>
<path fill="none" stroke="black" d="M244.5,-0.5C244.5,-0.5 533.5,-0.5 533.5,-0.5 539.5,-0.5 545.5,-6.5 545.5,-12.5 545.5,-12.5 545.5,-319.5 545.5,-319.5 545.5,-325.5 539.5,-331.5 533.5,-331.5 533.5,-331.5 244.5,-331.5 244.5,-331.5 238.5,-331.5 232.5,-325.5 232.5,-319.5 232.5,-319.5 232.5,-12.5 232.5,-12.5 232.5,-6.5 238.5,-0.5 244.5,-0.5"/>
<text text-anchor="middle" x="389" y="-316.3" font-family="Times,serif" font-size="14.00">User</text>
<polyline fill="none" stroke="black" points="232.5,-308.5 545.5,-308.5 "/>
<text text-anchor="start" x="240.5" y="-293.3" font-family="Times,serif" font-size="14.00">id :bigint</text>
<text text-anchor="start" x="240.5" y="-278.3" font-family="Times,serif" font-size="14.00">email :character varying</text>
<text text-anchor="start" x="240.5" y="-263.3" font-family="Times,serif" font-size="14.00">encrypted_password :character varying</text>
<text text-anchor="start" x="240.5" y="-248.3" font-family="Times,serif" font-size="14.00">reset_password_token :character varying</text>
<text text-anchor="start" x="240.5" y="-233.3" font-family="Times,serif" font-size="14.00">reset_password_sent_at :timestamp without time zone</text>
<text text-anchor="start" x="240.5" y="-218.3" font-family="Times,serif" font-size="14.00">remember_created_at :timestamp without time zone</text>
<text text-anchor="start" x="240.5" y="-203.3" font-family="Times,serif" font-size="14.00">sign_in_count :integer</text>
<text text-anchor="start" x="240.5" y="-188.3" font-family="Times,serif" font-size="14.00">current_sign_in_at :timestamp without time zone</text>
<text text-anchor="start" x="240.5" y="-173.3" font-family="Times,serif" font-size="14.00">last_sign_in_at :timestamp without time zone</text>
<text text-anchor="start" x="240.5" y="-158.3" font-family="Times,serif" font-size="14.00">current_sign_in_ip :character varying</text>
<text text-anchor="start" x="240.5" y="-143.3" font-family="Times,serif" font-size="14.00">last_sign_in_ip :character varying</text>
<text text-anchor="start" x="240.5" y="-128.3" font-family="Times,serif" font-size="14.00">confirmation_token :character varying</text>
<text text-anchor="start" x="240.5" y="-113.3" font-family="Times,serif" font-size="14.00">confirmed_at :timestamp without time zone</text>
<text text-anchor="start" x="240.5" y="-98.3" font-family="Times,serif" font-size="14.00">confirmation_sent_at :timestamp without time zone</text>
<text text-anchor="start" x="240.5" y="-83.3" font-family="Times,serif" font-size="14.00">unconfirmed_email :character varying</text>
<text text-anchor="start" x="240.5" y="-68.3" font-family="Times,serif" font-size="14.00">failed_attempts :integer</text>
<text text-anchor="start" x="240.5" y="-53.3" font-family="Times,serif" font-size="14.00">unlock_token :character varying</text>
<text text-anchor="start" x="240.5" y="-38.3" font-family="Times,serif" font-size="14.00">locked_at :timestamp without time zone</text>
<text text-anchor="start" x="240.5" y="-23.3" font-family="Times,serif" font-size="14.00">created_at :timestamp without time zone</text>
<text text-anchor="start" x="240.5" y="-8.3" font-family="Times,serif" font-size="14.00">updated_at :timestamp without time zone</text>
</g>
<!-- ApplicationRecord -->
<g id="node3" class="node"><title>ApplicationRecord</title>
<ellipse fill="none" stroke="black" cx="641" cy="-166" rx="77.1866" ry="18"/>
<text text-anchor="middle" x="641" y="-162.3" font-family="Times,serif" font-size="14.00">ApplicationRecord</text>
</g>
</g>
</svg>
